<?xml version="1.0" encoding="UTF-8" standalone="no"?>
<svg width="300px" height="310px" viewBox="0 0 300 310" version="1.1" xmlns="http://www.w3.org/2000/svg" xmlns:xlink="http://www.w3.org/1999/xlink" xmlns:sketch="http://www.bohemiancoding.com/sketch/ns">
    <title>White with colors transparent</title>
    <description>Created with Sketch (http://www.bohemiancoding.com/sketch)</description>
    <defs></defs>
    <g id="Page-1" stroke="none" stroke-width="1" fill="none" fill-rule="evenodd" sketch:type="MSPage">
        <g id="UnicornBreeders-01" sketch:type="MSLayerGroup" transform="translate(-1231.000000, -691.000000)">
            <g id="Black-Background" transform="translate(0.000000, 376.000000)" sketch:type="MSShapeGroup">
                <g id="White-with-colors" transform="translate(1231.000000, 315.000000)">
                    <path d="M281.257317,138.371667 C286.617073,138.371667 290.959756,142.724 290.959756,148.095667 C290.959756,153.467333 286.613415,157.819667 281.257317,157.819667 C275.90122,157.819667 271.554878,153.467333 271.554878,148.095667 C271.554878,142.724 275.897561,138.371667 281.257317,138.371667" id="Shape" fill="#FFFFFF"></path>
                    <path d="M18.504878,138.371667 C23.8609756,138.371667 28.2073171,142.724 28.2073171,148.095667 C28.2073171,153.467333 23.8609756,157.819667 18.504878,157.819667 C13.1414634,157.819667 8.79512195,153.467333 8.79512195,148.095667 C8.79512195,142.724 13.1414634,138.371667 18.504878,138.371667" id="Shape" fill="#FFFFFF"></path>
                    <path d="M252.65122,113.929667 L271.876829,90.7856667 L270.99878,89.6563333 L253.536585,98.0566667 L255.592683,102.346667 L248.696341,105.661333 L241.020732,89.6526667 L247.92439,86.3306667 L249.929268,90.5326667 L275.732927,78.1173333 L273.713415,73.919 L280.532927,70.641 L287.82439,85.8686667 L269.293902,107.678 L270.171951,108.814667 L286.642683,100.891 L284.64878,96.722 L291.453659,93.444 L299.059756,109.324333 L292.247561,112.602333 L290.290244,108.525 L257.597561,124.255 L252.65122,113.929667 Z" id="Shape" fill="#FFFFFF"></path>
                    <path d="M229.576829,75.1913333 C229.576829,75.1913333 235.602439,63.2526667 235.70122,63.0436667 L235.884146,62.6366667 C236.403659,61.3936667 236.619512,60.455 236.630488,59.619 C236.637805,59.0836667 236.509756,58.5666667 236.242683,58.068 C235.957317,57.5363333 235.514634,57.0046667 234.92561,56.4876667 L231.095122,53.1216667 L224.564634,60.5833333 L228.036585,63.6303333 L222.984146,69.3943333 L208.960976,57.0596667 L214.009756,51.2993333 L217.62439,54.482 L236.509756,32.922 L232.891463,29.7393333 L237.87439,24.0523333 L254.103659,38.3266667 C255.643902,39.6906667 256.895122,41.062 257.82439,42.404 C258.709756,43.691 259.339024,44.9963333 259.690244,46.298 L259.752439,46.562 C260.1,48.0066667 259.909756,49.609 259.189024,51.3176667 C258.50122,52.964 257.304878,54.7643333 255.632927,56.6746667 C254.656098,57.7893333 253.595122,58.684 252.486585,59.3366667 C251.359756,59.9893333 250.163415,60.4 248.926829,60.5613333 C248.517073,60.609 248.110976,60.6346667 247.715854,60.6346667 C247.028049,60.6346667 246.343902,60.5576667 245.685366,60.4036667 L244.576829,60.147 L244.803659,61.2653333 C244.939024,61.94 244.960976,62.6293333 244.869512,63.3113333 L244.829268,63.6266667 C244.679268,64.5176667 244.419512,65.4893333 244.060976,66.5233333 C243.669512,67.671 243.131707,68.947 242.469512,70.3183333 L240.358537,74.4726667 L243.219512,76.988 L238.167073,82.7556667 L229.576829,75.1913333 L229.576829,75.1913333 Z M240.131707,50.852 C241.836585,52.348 243.373171,53.0776667 244.821951,53.0776667 C246.069512,53.0776667 247.276829,52.491 248.418293,51.3286667 L248.806098,50.9106667 C250.002439,49.5466667 250.562195,48.223 250.478049,46.9726667 C250.441463,46.54 250.342683,46.1366667 250.181707,45.7553333 C249.841463,44.9303333 249.186585,44.0796667 248.22439,43.2363333 L243.435366,39.0233333 L236.154878,47.3503333 L239.934146,50.6796667 L240.131707,50.852 L240.131707,50.852 Z" id="Shape" fill="#FFFFFF"></path>
                    <path d="M193.236585,50.9473333 C192.739024,50.9473333 192.237805,50.9253333 191.732927,50.8813333 C189.892683,50.7273333 187.968293,50.291 186.003659,49.5833333 C184.068293,48.8793333 182.312195,47.981 180.793902,46.9176667 C179.268293,45.847 177.940244,44.5746667 176.842683,43.1373333 C175.74878,41.7073333 174.881707,40.138 174.267073,38.4733333 C173.656098,36.827 173.271951,35.0266667 173.118293,33.12 C172.971951,31.217 173.045122,29.2736667 173.341463,27.3413333 C173.641463,25.3833333 174.164634,23.3593333 174.896341,21.328 C176.37439,17.236 178.459756,13.7746667 181.082927,11.0466667 C182.410976,9.67166667 183.867073,8.52033333 185.407317,7.622 C186.943902,6.731 188.615854,6.071 190.368293,5.66033333 L190.664634,5.59066667 C191.085366,5.50266667 191.495122,5.42933333 191.90122,5.37066667 C192.380488,5.30466667 192.892683,5.257 193.423171,5.22766667 C193.730488,5.213 194.041463,5.20566667 194.356098,5.20566667 C196.67561,5.20566667 199.093902,5.653 201.537805,6.53666667 C203.465854,7.24066667 205.214634,8.14266667 206.732927,9.21333333 C208.181707,10.2363333 209.454878,11.45 210.519512,12.8176667 L210.669512,13.023 C210.973171,13.4226667 211.258537,13.8333333 211.510976,14.244 C211.789024,14.6876667 212.041463,15.1203333 212.27561,15.5566667 C213.442683,17.819 214.134146,20.3416667 214.328049,23.0513333 C214.368293,23.6563333 214.397561,24.188 214.397561,24.6756667 C214.397561,25.2036667 214.382927,25.75 214.353659,26.311 C214.189024,29.0903333 213.563415,31.998 212.495122,34.946 C211.752439,37.014 210.863415,38.9096667 209.842683,40.6 L209.326829,41.425 C208.441463,42.7816667 207.431707,44.0503333 206.341463,45.187 C205.946341,45.6013333 205.573171,45.957 205.203659,46.287 C204.852439,46.5986667 204.453659,46.925 204.021951,47.2586667 C201.962195,48.8316667 199.646341,49.9206667 197.140244,50.4926667 C195.870732,50.7933333 194.560976,50.9473333 193.236585,50.9473333 L193.236585,50.9473333 L193.236585,50.9473333 Z M182.736585,36.0423333 C182.828049,36.4346667 182.945122,36.8306667 183.091463,37.2266667 C183.241463,37.6336667 183.406098,38.0113333 183.596341,38.3523333 C184.580488,40.1673333 186.270732,41.5203333 188.623171,42.371 C189.87439,42.8293333 191.078049,43.0603333 192.204878,43.0603333 C192.570732,43.0603333 192.921951,43.0383333 193.269512,42.9906667 C193.481707,42.9613333 193.715854,42.9173333 193.960976,42.8586667 C195.109756,42.5946667 196.214634,42.0483333 197.246341,41.238 C197.612195,40.9483333 197.94878,40.644 198.289024,40.3213333 C198.643902,39.9693333 198.973171,39.621 199.276829,39.269 C200.817073,37.4613333 202.137805,35.111 203.220732,32.2693333 L203.462195,31.6496667 C204.256098,29.4276667 204.771951,27.3266667 204.99878,25.4053333 C205.039024,25.112 205.07561,24.8003333 205.093902,24.4886667 C205.196341,22.956 205.115854,21.504 204.84878,20.173 C204.753659,19.7073333 204.632927,19.2966667 204.493902,18.9116667 C204.354878,18.5303333 204.182927,18.1563333 203.996341,17.8006667 C203.22439,16.3743333 202.017073,15.2376667 200.4,14.398 L200.528049,14.332 L198.929268,13.749 C197.696341,13.3016667 196.503659,13.078 195.380488,13.078 C195.010976,13.078 194.656098,13.1 194.304878,13.1476667 C194.092683,13.177 193.865854,13.221 193.613415,13.2796667 C192.464634,13.5436667 191.356098,14.09 190.32439,14.904 C189.05122,15.8976667 187.873171,17.2213333 186.823171,18.8346667 C185.791463,20.426 184.85122,22.3766667 184.031707,24.6353333 C183.241463,26.8316667 182.736585,28.8923333 182.520732,30.7623333 C182.304878,32.625 182.37439,34.3776667 182.721951,35.9653333 L182.721951,36.0496667 L182.736585,36.0423333 L182.736585,36.0423333 Z" id="Shape" fill="#FFFFFF"></path>
                    <path d="M146.828049,46.1036667 C143.67439,45.946 140.860976,45.2786667 138.464634,44.12 C136.064634,42.9503333 134.041463,41.2526667 132.442683,39.0746667 C130.865854,36.9186667 129.709756,34.4363333 129.010976,31.6973333 C128.308537,28.9693333 128.037805,25.9223333 128.19878,22.6443333 C128.319512,20.371 128.593902,18.2663333 129.014634,16.367 C129.091463,15.9893333 129.164634,15.6776667 129.234146,15.421 C129.552439,14.1486667 129.95122,12.902 130.426829,11.703 L130.437805,11.7103333 L130.8,10.823 C131.004878,10.3536667 131.235366,9.88433333 131.480488,9.41866667 C131.710976,8.97133333 131.970732,8.53866667 132.237805,8.10966667 L132.537805,7.633 C133.854878,5.66766667 135.47561,4.05066667 137.356098,2.82233333 C138.797561,1.88733333 140.378049,1.20533333 142.053659,0.791 C143.429268,0.453666667 144.907317,0.281333333 146.447561,0.281333333 C146.795122,0.281333333 147.146341,0.288666667 147.50122,0.307 C149.985366,0.431666667 152.158537,1.06233333 153.958537,2.177 C154.67561,2.62066667 155.34878,3.15233333 155.959756,3.75366667 L157.126829,4.90866667 L157.276829,1.76266667 L165.808537,2.18433333 L164.967073,19.2783333 L156.435366,18.8566667 L156.471951,18.1306667 C156.54878,16.6346667 156.417073,15.2633333 156.080488,14.046 L155.893902,13.4703333 C155.568293,12.528 155.089024,11.6663333 154.467073,10.911 C153.731707,10.009 152.860976,9.316 151.876829,8.85033333 C150.878049,8.37366667 149.714634,8.095 148.423171,8.03266667 L147.852439,8.018 C146.363415,8.018 145.046341,8.32233333 143.945122,8.92 C142.690244,9.60566667 141.640244,10.6836667 140.82439,12.132 C140.586585,12.5573333 140.359756,13.001 140.140244,13.4813333 C139.939024,13.9103333 139.745122,14.3906667 139.55122,14.904 C138.614634,17.4083333 138.05122,20.404 137.879268,23.814 C137.776829,25.893 137.912195,27.8326667 138.27439,29.5743333 C138.629268,31.228 139.196341,32.7276667 139.968293,34.044 L140.07439,34.231 C141.556098,36.6876667 143.857317,38.092 146.919512,38.4073333 L146.919512,38.4256667 L147.991463,38.477 C148.884146,38.477 149.736585,38.323 150.512195,38.0223333 L150.936585,37.8426667 C151.569512,37.542 152.173171,37.124 152.743902,36.5886667 L152.981707,36.365 C153.252439,36.0826667 153.446341,35.8626667 153.636585,35.6206667 C153.808537,35.4006667 153.976829,35.1623333 154.141463,34.902 C154.942683,33.6186667 155.42561,32.075 155.568293,30.3076667 L155.630488,29.6073333 L164.55,30.0473333 L164.49878,30.7806667 C164.37439,32.6616667 164.052439,34.385 163.547561,35.8993333 C163.031707,37.432 162.318293,38.8106667 161.421951,39.995 C161.15122,40.3543333 160.895122,40.6586667 160.639024,40.9483333 C160.368293,41.2563333 160.093902,41.5423333 159.812195,41.8173333 C158.359756,43.218 156.673171,44.263 154.807317,44.9303333 C154.423171,45.066 154.064634,45.1833333 153.706098,45.286 C153.340244,45.3923333 152.97439,45.4913333 152.604878,45.583 C151.068293,45.9496667 149.480488,46.1293333 147.881707,46.1293333 C147.885366,46.1293333 147.182927,46.122 146.828049,46.1036667 L146.828049,46.1036667 Z" id="Shape" fill="#FFFFFF"></path>
                    <path d="M103.85122,46.9873333 L108.128049,45.4326667 L98.3634146,18.4753333 L94.0865854,20.0336667 L91.5073171,12.913 L108.720732,6.64666667 L111.3,13.771 L107.023171,15.3256667 L116.787805,42.2793333 L121.064634,40.7246667 L123.680488,47.937 L106.463415,54.1996667 L103.85122,46.9873333 Z" id="Shape" fill="#FFFFFF"></path>
                    <path d="M63.3841463,80.0606667 L66.5853659,76.6873333 L45.8670732,56.913 L42.6621951,60.2863333 L37.1963415,55.0686667 L48.8158537,42.833 L75.7280488,52.4616667 L76.4780488,51.237 L63.245122,38.6126667 L60.0658537,41.9603333 L54.5926829,36.7426667 L66.7134146,23.9863333 L72.1829268,29.204 L69.0731707,32.482 L95.3378049,57.5546667 L87.4536585,65.856 L59.0487805,56.0256667 L58.3060976,57.2503333 L72.3329268,70.641 L75.6036585,67.198 L81.15,72.4926667 L68.9268293,85.3516667 L63.3841463,80.0606667 Z" id="Shape" fill="#FFFFFF"></path>
                    <path d="M40.3060976,118.505667 C39.252439,118.505667 38.2134146,118.421333 37.2036585,118.256333 C35.3012195,117.944667 33.4573171,117.336 31.7231707,116.456 L13.0609756,106.988667 L11.2317073,110.600333 L4.49268293,107.179333 L12.702439,90.9176667 L19.445122,94.3386667 L17.1768293,98.834 L33.1463415,106.93 C34.1707317,107.454333 35.1365854,107.905333 36.0402439,108.275667 C36.954878,108.657 37.8146341,108.965 38.5939024,109.196 C39.3585366,109.430667 40.1231707,109.551667 40.8768293,109.559 L40.8768293,109.559 C41.6268293,109.559 42.3878049,109.445333 43.1378049,109.218 C43.35,109.155667 43.5402439,109.082333 43.7304878,108.994333 C43.9207317,108.91 44.1,108.811 44.2792683,108.697333 C45.2268293,108.096 46.0646341,107.084 46.7670732,105.687 C47.4914634,104.260667 47.85,102.973667 47.8426829,101.848 C47.85,101.675667 47.8353659,101.496 47.8207317,101.353 C47.7256098,100.469333 47.3963415,99.681 46.8439024,98.9953333 C46.104878,98.0786667 45.15,97.1803333 43.997561,96.326 C42.8268293,95.4533333 41.4073171,94.5953333 39.7902439,93.7776667 L23.8280488,85.6743333 L21.5121951,90.2576667 L14.7695122,86.8366667 L22.6243902,71.2826667 L29.3670732,74.7 L27.5926829,78.209 L46.2585366,87.6763333 C47.5939024,88.362 48.7902439,89.1613333 49.8329268,90.0596667 L50.3378049,90.518 C51.2012195,91.3356667 51.9695122,92.2303333 52.6207317,93.1836667 C52.8402439,93.499 53.0487805,93.8363333 53.2646341,94.1883333 C53.4512195,94.5146667 53.6378049,94.8593333 53.8097561,95.204 C54.6658537,96.964 55.1817073,98.8816667 55.3317073,100.902 C55.4268293,102.31 55.3317073,103.721667 55.05,105.082 C54.7573171,106.460667 54.2743902,107.828333 53.6012195,109.148333 C52.2219512,111.887333 50.645122,114.043333 48.9256098,115.568667 C47.1621951,117.127 45.2012195,118.051 43.104878,118.318667 C42.15,118.443333 41.2207317,118.505667 40.3060976,118.505667 L40.3060976,118.505667 L40.3060976,118.505667 Z" id="Shape" fill="#FFFFFF"></path>
                    <path d="M279.856098,205.200333 L281.623171,197.562667 L281.82439,197.610333 L281.82439,197.625 L283.031707,197.881667 C283.434146,197.962333 283.814634,198.024667 284.176829,198.076 C284.443902,198.112667 285.237805,198.182333 285.237805,198.182333 C285.50122,198.197 285.760976,198.204333 286.006098,198.204333 C287.27561,198.204333 288.336585,197.980667 289.156098,197.544333 C289.382927,197.419667 289.580488,197.295 289.77439,197.155667 C289.97561,197.012667 290.165854,196.847667 290.334146,196.671667 C291.24878,195.766 291.903659,194.438667 292.32439,192.627333 C292.613415,191.362333 292.430488,190.049667 291.786585,188.722333 C291.709756,188.553667 291.632927,188.403333 291.541463,188.253 L291.512195,188.205333 C291.417073,188.040333 291.296341,187.882667 291.182927,187.739667 C290.809756,187.285 290.352439,186.925667 289.814634,186.661667 L289.89878,186.555333 L288.764634,186.287667 C287.934146,186.097 287.162195,186.001667 286.478049,186.001667 C286.115854,186.001667 285.779268,186.027333 285.464634,186.078667 L285.047561,186.170333 C284.359756,186.35 283.789024,186.672667 283.335366,187.123667 L281.989024,188.608667 L282.073171,188.630667 C281.15122,189.881 280.115854,191.582333 278.996341,193.690667 L278.491463,194.611 C277.679268,196.022667 276.863415,197.214333 276.014634,198.219 C275.154878,199.238333 274.262195,200.063333 273.362195,200.679333 C272.308537,201.412667 271.006098,201.845333 269.487805,201.97 C269.162195,201.995667 268.82561,202.010333 268.485366,202.010333 C267.234146,202.010333 265.843902,201.834333 264.358537,201.482333 C262.357317,201.009333 260.656098,200.309 259.269512,199.392333 C259.039024,199.242 258.819512,199.080667 258.6,198.915667 C257.513415,198.083333 256.609756,197.067667 255.914634,195.894333 L255.680488,195.498333 C255.523171,195.201333 255.395122,194.937333 255.270732,194.658667 C255.084146,194.262667 254.926829,193.848333 254.791463,193.423 C254.103659,191.263333 254.04878,188.913 254.623171,186.430667 C255.084146,184.450667 255.870732,182.778667 256.953659,181.462333 C257.367073,180.96 257.82439,180.505333 258.310976,180.113 L259.587805,179.086333 L257.97439,178.818667 L257.407317,178.686667 L259.137805,171.221333 L273.128049,174.481 L271.364634,182.104 L270.793902,182.001333 C269.707317,181.803333 268.704878,181.704333 267.812195,181.704333 C267.589024,181.704333 267.376829,181.708 267.164634,181.722667 C266.158537,181.788667 265.306098,181.997667 264.636585,182.346 C264.420732,182.452333 264.252439,182.562333 264.091463,182.676 C263.923171,182.797 263.75122,182.94 263.590244,183.105 C262.8,183.871333 262.207317,185.059333 261.837805,186.621333 C261.439024,188.377667 261.523171,189.719667 262.097561,190.724333 C262.668293,191.707 263.75122,192.385333 265.317073,192.755667 C265.895122,192.891333 266.418293,192.957333 266.890244,192.957333 C267.190244,192.957333 267.471951,192.931667 267.728049,192.876667 C268.492683,192.645667 268.895122,192.378 269.213415,191.993 L269.714634,191.358667 C270.197561,190.698667 270.764634,189.859 271.426829,188.821333 L272.531707,187.032 L273.523171,185.356333 C274.532927,183.636667 275.579268,182.159 276.636585,180.967333 C277.65,179.812333 278.692683,178.888333 279.739024,178.206333 L279.976829,178.059667 C281.147561,177.33 282.541463,176.897333 284.121951,176.772667 C284.462195,176.747 284.809756,176.732333 285.168293,176.732333 C286.452439,176.732333 287.879268,176.912 289.408537,177.267667 C290.67439,177.561 291.863415,177.975333 292.935366,178.507 C293.908537,178.991 294.80122,179.577667 295.595122,180.252333 L295.847561,180.479667 C296.063415,180.666667 296.279268,180.879333 296.520732,181.132333 C296.747561,181.359667 296.952439,181.590667 297.139024,181.818 C298.156098,183.053667 298.891463,184.428667 299.312195,185.917333 C299.414634,186.254667 299.487805,186.537 299.539024,186.812 C299.593902,187.094333 299.645122,187.398667 299.689024,187.710333 C299.879268,189.129333 299.820732,190.581333 299.517073,192.037 L299.440244,192.367 C299.162195,193.566 298.840244,194.622 298.467073,195.575333 L298.284146,196.026333 C297.969512,196.781667 297.603659,197.463667 297.212195,198.076 C296.776829,198.747 296.217073,199.352 295.543902,199.872667 L294.35122,200.796667 L296.480488,201.317333 L294.77561,208.672667 L279.856098,205.200333 L279.856098,205.200333 Z" id="Shape" fill="#FFFFFF"></path>
                    <path d="M259.730488,250.454333 L262.459756,246.538333 L239.209756,230.276667 L236.484146,234.189 L230.367073,229.91 L242.60122,212.346667 C243.80122,210.638 244.979268,209.296 246.193902,208.24 C247.434146,207.154667 248.729268,206.359 250.060976,205.878667 C250.737805,205.636667 251.469512,205.512 252.234146,205.512 C253.031707,205.512 253.887805,205.647667 254.784146,205.911667 C256.481707,206.410333 258.380488,207.393 260.440244,208.826667 C261.643902,209.67 262.639024,210.619667 263.392683,211.646333 C264.153659,212.676667 264.687805,213.806 264.987805,215.012333 C265.240244,216.072 265.306098,217.15 265.185366,218.224333 L265.060976,219.368333 L266.147561,219.001667 C266.710976,218.811 267.321951,218.715667 267.962195,218.715667 L268.137805,218.715667 L268.489024,218.638667 C269.096341,218.741333 270.186585,218.891667 271.386585,219.163 C272.553659,219.427 273.863415,219.815667 275.27561,220.318 L279.596341,221.935 L281.75122,218.847667 L287.956098,223.189 L281.480488,232.473 L268.884146,227.768667 C268.697561,227.699 268.481707,227.629333 268.243902,227.563333 C267.39878,227.321333 266.634146,227.196667 265.957317,227.196667 C265.770732,227.196667 265.587805,227.204 265.419512,227.226 C264.903659,227.273667 264.413415,227.460667 263.945122,227.779667 C263.45122,228.113333 262.986585,228.601 262.529268,229.261 L259.639024,233.408 L267.684146,239.032667 L270.303659,235.281667 L276.504878,239.623 L265.939024,254.792 L259.730488,250.454333 L259.730488,250.454333 Z M244.437805,222.778333 L253.419512,229.059333 L256.415854,224.751 C257.692683,222.932333 258.256098,221.293333 258.102439,219.874333 C257.94878,218.503 257.092683,217.263667 255.556098,216.189333 C254.319512,215.331333 253.178049,214.895 252.142683,214.895 C251.915854,214.895 251.692683,214.917 251.476829,214.957333 C250.254878,215.188333 249.09878,216.072 248.041463,217.586333 L247.434146,218.459 L247.44878,218.462667 L244.437805,222.778333 L244.437805,222.778333 Z" id="Shape" fill="#FFFFFF"></path>
                    <path d="M165.230488,300.119333 L169.569512,299.459333 L165.35122,271.376333 L161.004878,272.029 L159.892683,264.633333 L179.978049,261.601 C180.973171,261.443333 181.982927,261.37 182.996341,261.37 C184.141463,261.37 185.323171,261.465333 186.50122,261.656 C188.710976,262.015333 190.990244,262.712 193.262195,263.724 C195.665854,264.805667 197.582927,266.701333 199.119512,269.513667 C200.60122,272.230667 201.684146,275.809333 202.342683,280.147 C202.679268,282.475333 202.792683,284.646 202.686585,286.626 C202.664634,286.989 202.635366,287.315333 202.609756,287.597667 C202.459756,289.244 202.141463,290.813333 201.662195,292.265333 C201.512195,292.731 201.340244,293.207667 201.131707,293.695333 C200.945122,294.157333 200.740244,294.608333 200.513415,295.048333 C199.364634,297.281333 197.773171,299.177 195.786585,300.676667 C194.418293,301.707 192.856098,302.576 191.140244,303.254333 C189.42439,303.921667 187.554878,304.409333 185.582927,304.706333 L166.353659,307.614 L165.230488,300.119333 L165.230488,300.119333 Z M181.935366,269.026 C181.240244,269.026 180.508537,269.084667 179.743902,269.194667 L174.365854,270.012333 L178.591463,298.099 L183.965854,297.292333 C185.773171,297.013667 187.328049,296.46 188.593902,295.649667 C189.841463,294.846667 190.854878,293.750333 191.60122,292.397333 C192.362195,291.026 192.863415,289.431 193.086585,287.66 C193.313415,285.852333 193.262195,283.835667 192.936585,281.668667 C192.6,279.432 192.054878,277.437333 191.308537,275.743333 C190.752439,274.449 190.053659,273.308667 189.237805,272.340667 L189.27439,272.322333 L188.568293,271.6 C188.235366,271.277333 187.917073,271.006 187.59878,270.767667 C187.265854,270.514667 186.910976,270.291 186.556098,270.100333 C185.239024,269.385333 183.684146,269.026 181.935366,269.026 L181.935366,269.026 L181.935366,269.026 Z" id="Shape" fill="#FFFFFF"></path>
                    <path d="M38.3634146,256.739 L45.6256098,245.401667 L45.9585366,244.815 C46.4853659,243.839667 46.7963415,242.937667 46.8914634,242.123667 C46.9536585,241.588333 46.8768293,241.060333 46.6609756,240.547 C46.4487805,240.011667 46.0756098,239.458 45.5268293,238.860333 L42.0914634,235.149667 L34.895122,241.834 L38.004878,245.192667 L32.454878,250.344333 L19.9060976,236.781333 L25.4487805,231.626 L28.6902439,235.127667 L49.4817073,215.804333 L46.2402439,212.306333 L51.7170732,207.220667 L66.245122,222.928667 C67.6207317,224.424667 68.7146341,225.898667 69.4902439,227.317667 C70.2804878,228.755 70.7780488,230.199667 70.9756098,231.607667 C71.1621951,233.056 70.8109756,234.614333 69.9329268,236.224 C69.0878049,237.778667 67.7268293,239.432333 65.8939024,241.137333 C64.8219512,242.131 63.6841463,242.904667 62.5207317,243.432667 C61.3609756,243.960667 60.1426829,244.246667 58.895122,244.279667 L58.8402439,244.279667 C57.647561,244.279667 56.6597561,244.114667 55.7268293,243.792 L54.647561,243.418 L54.7609756,244.562 C54.8304878,245.225667 54.7792683,245.904 54.6182927,246.586 C54.3914634,247.506333 54.0109756,248.540333 53.4914634,249.666 C52.9792683,250.766 52.3280488,251.961333 51.5414634,253.233667 L49.0426829,257.120333 L51.6036585,259.885 L46.0536585,265.040333 L38.3634146,256.739 L38.3634146,256.739 Z M47.6487805,229.979667 L51.2085366,233.829667 C52.7121951,235.468667 54.1865854,236.367 55.6097561,236.517333 L56.0195122,236.539333 C57.252439,236.539333 58.5036585,235.956333 59.7402439,234.805 C61.0792683,233.565667 61.7707317,232.311667 61.8073171,231.076 C61.847561,229.833 61.2256098,228.513 59.9707317,227.156333 L55.6756098,222.521667 L47.6487805,229.979667 L47.6487805,229.979667 Z" id="Shape" fill="#FFFFFF"></path>
                    <path d="M16.5329268,212.500667 C15.9256098,212.500667 15.347561,212.460333 14.795122,212.379667 C12.8231707,212.082667 11.2243902,211.257667 10.05,209.930333 C9.73536585,209.571 9.43536585,209.193333 9.13170732,208.782667 C8.83170732,208.379333 8.55,207.954 8.28292683,207.525 C6.89268293,205.273667 5.7402439,202.421 4.85487805,199.047667 L0.365853659,181.920667 L7.68292683,179.995667 L8.79512195,184.249 L36.2085366,177.033 L35.0926829,172.776 L42.3182927,170.869333 L46.8878049,188.297 C47.4731707,190.574 47.8536585,192.627333 48.0219512,194.438667 L48.0841463,195.326 C48.1646341,196.796333 48.095122,198.156667 47.8756098,199.363 C47.5792683,200.928667 46.7817073,202.226667 45.4280488,203.319333 C44.1439024,204.357 42.354878,205.182 40.1085366,205.772333 C39.252439,205.992333 38.4768293,206.142667 37.7560976,206.219667 C37.2914634,206.274667 36.8414634,206.296667 36.402439,206.296667 C36.15,206.296667 35.9012195,206.289333 35.6560976,206.271 C33.552439,206.128 31.8585366,205.409333 30.4829268,204.071 L29.5829268,203.194667 L29.2682927,204.419333 C29.0158537,205.391 28.5804878,206.359 27.9731707,207.294 C27.2597561,208.408667 26.3560976,209.351 25.2914634,210.099 C24.2341463,210.832333 22.9939024,211.397 21.6,211.763667 C19.7414634,212.251333 18.0365854,212.500667 16.5329268,212.500667 L16.5329268,212.500667 L16.5329268,212.500667 Z M11.1146341,193.096667 L12.2231707,197.320667 C12.5487805,198.563667 12.9365854,199.627 13.3682927,200.481333 C13.7743902,201.288 14.2463415,201.937 14.7658537,202.41 L14.8609756,202.479667 C15.0036585,202.619 15.2707317,202.784 15.5743902,202.901333 C15.8560976,203.015 16.2,203.095667 16.6280488,203.139667 C16.8073171,203.158 16.9902439,203.165333 17.1841463,203.165333 C17.6597561,203.165333 18.1939024,203.110333 18.7792683,202.996667 L18.7792683,203.029667 L19.697561,202.795 C20.8756098,202.483333 21.804878,202.083667 22.452439,201.603333 C23.1329268,201.024 23.3890244,200.617 23.4841463,200.173333 C23.6158537,199.535333 23.6414634,198.750667 23.5609756,197.841333 C23.4731707,196.899 23.2682927,195.81 22.9463415,194.6 L21.8121951,190.280667 L11.1146341,193.096667 L11.1146341,193.096667 Z M29.652439,191.952667 C29.9304878,193.008667 30.2780488,193.94 30.6841463,194.724667 L30.8926829,195.098667 C31.2365854,195.692667 31.6353659,196.206 32.0743902,196.627667 C32.5390244,197.078667 33.1390244,197.364667 33.852439,197.474667 C34.0792683,197.507667 34.3134146,197.522333 34.5585366,197.522333 C34.902439,197.522333 35.2682927,197.489333 35.6597561,197.427 L35.6597561,197.478333 L36.5853659,197.24 C37.5878049,196.968667 38.3743902,196.605667 38.9195122,196.162 C39.0695122,196.044667 39.2231707,195.898 39.3621951,195.733 C39.6256098,195.406667 39.7902439,195.065667 39.8707317,194.713667 C40.0170732,194.020667 40.0609756,193.265333 40.0060976,192.458667 C39.947561,191.626333 39.7829268,190.669333 39.5085366,189.620667 L38.5280488,185.877 L28.7414634,188.454667 L29.6560976,191.974667 L29.652439,191.952667 L29.652439,191.952667 Z" id="Shape" fill="#FFFFFF"></path>
                    <path d="M217.207317,284.037333 L219.995122,282.222333 L204.541463,258.414667 L201.753659,260.226 L197.685366,253.956 L226.423171,235.215667 L234.014634,246.905 L227.443902,251.187667 L223.928049,245.775667 L212.191463,253.424333 L217.704878,261.923667 L221.487805,259.456 L219.3,256.079 L223.920732,253.068667 L232.097561,265.663667 L227.473171,268.677667 L225.39878,265.473 L221.608537,267.948 L227.645122,277.235667 L239.381707,269.583333 L235.254878,263.210667 L241.821951,258.924333 L250.082927,271.651333 L221.334146,290.391667 L217.207317,284.037333 Z" id="Shape" fill="#FFFFFF"></path>
                    <path d="M57.4865854,276.667333 L61.5695122,270.28 L64.3646341,272.080333 L79.6536585,248.162667 L76.8585366,246.366 L80.8902439,240.063 L109.756098,258.605333 L102.24878,270.346 L95.652439,266.111 L99.1317073,260.666 L87.3402439,253.094333 L81.8853659,261.634 L85.6829268,264.079667 L87.8487805,260.688 L92.4914634,263.669 L84.4060976,276.319 L79.7634146,273.334333 L81.8195122,270.118667 L78.0146341,267.680333 L72.047561,277.012 L83.8426829,284.587333 L87.9292683,278.189 L94.5329268,282.424 L86.3597561,295.209667 L57.4865854,276.667333 Z" id="Shape" fill="#FFFFFF"></path>
                    <path d="M111.091463,304.578 L112.2,297.079667 L115.481707,297.571 L119.637805,269.469667 L116.352439,268.982 L117.45,261.579 L151.368293,266.617 L149.326829,280.411 L141.57439,279.263333 L142.518293,272.868667 L128.667073,270.808 L127.185366,280.843667 L131.64878,281.5 L132.241463,277.521667 L137.692683,278.335667 L135.493902,293.189333 L130.042683,292.382667 L130.606098,288.606 L126.135366,287.942333 L124.507317,298.913 L138.365854,300.97 L139.478049,293.449667 L147.234146,294.597333 L145.017073,309.619667 L111.091463,304.578 Z" id="Shape" fill="#FFFFFF"></path>
                    <path d="M151.459756,238.644 C127.306098,238.644 105.618293,227.145333 91.9463415,207.099667 C78.7609756,187.761667 75.6658537,163.932 83.6707317,143.358333 L83.8426829,142.918333 L76.9243902,135.819667 L90.3146341,119.987 L109.558537,140.333333 C105.889024,144.572 103.134146,149.727333 101.571951,155.286 C97.8,168.695 100.887805,183.336 110.041463,195.458 C119.915854,208.526 135.376829,216.328667 151.40122,216.328667 C151.40122,216.328667 152.539024,216.321333 153.106098,216.299333 C169.145122,215.767667 184.346341,207.437 193.763415,194.009667 C202.434146,181.653 204.976829,167.012 200.740244,153.837667 C199.108537,148.774 196.565854,144.231 193.185366,140.326 L212.429268,119.979667 L225.823171,135.812333 L218.904878,142.911 L219.076829,143.351 C226.986585,163.679 224.096341,187.299667 211.35,206.531333 C198.252439,226.294667 177.164634,237.987667 153.497561,238.611 C152.817073,238.633 152.136585,238.644 151.459756,238.644 L151.459756,238.644 L151.459756,238.644 Z M151.371951,219.379333 C147.643902,219.379333 144.610976,222.422667 144.610976,226.159 C144.610976,229.899 147.643902,232.942333 151.371951,232.942333 C155.1,232.942333 158.132927,229.899 158.132927,226.159 C158.136585,222.419 155.103659,219.379333 151.371951,219.379333 L151.371951,219.379333 L151.371951,219.379333 Z M204.442683,190.376 C200.710976,190.376 197.678049,193.419333 197.678049,197.155667 C197.678049,200.892 200.710976,203.935333 204.442683,203.935333 C208.178049,203.935333 211.214634,200.892 211.214634,197.155667 C211.214634,193.419333 208.17439,190.376 204.442683,190.376 L204.442683,190.376 L204.442683,190.376 Z M98.5609756,190.376 C94.8329268,190.376 91.7963415,193.419333 91.7963415,197.155667 C91.7963415,200.892 94.8329268,203.935333 98.5609756,203.935333 C102.289024,203.935333 105.32561,200.892 105.32561,197.155667 C105.32561,193.419333 102.289024,190.376 98.5609756,190.376 L98.5609756,190.376 L98.5609756,190.376 Z M210.552439,128.966667 C206.820732,128.966667 203.787805,132.01 203.787805,135.746333 C203.787805,139.486333 206.820732,142.529667 210.552439,142.529667 C214.284146,142.529667 217.317073,139.486333 217.317073,135.746333 C217.313415,132.006333 214.280488,128.966667 210.552439,128.966667 L210.552439,128.966667 L210.552439,128.966667 Z M91.3463415,128.226 C87.6182927,128.226 84.5853659,131.269333 84.5853659,135.005667 C84.5853659,138.742 87.6182927,141.781667 91.3463415,141.781667 C95.0743902,141.781667 98.1109756,138.742 98.1109756,135.005667 C98.1109756,131.269333 95.0743902,128.226 91.3463415,128.226 L91.3463415,128.226 L91.3463415,128.226 Z" id="Shape" fill="#FFFFFF"></path>
                    <path d="M136.218293,153.614 L144.263415,145.125667 C138.504878,136.461333 130.397561,126.136 122.634146,126.015 C110.743902,125.831667 100.064634,112.653667 96.0512195,100.344667 C92.5573171,89.6306667 93.995122,80.5703333 99.8890244,76.108 C102.292683,74.2893333 105.197561,73.369 108.523171,73.369 C117.040244,73.369 127.639024,79.54 134.893902,88.7213333 C140.787805,96.1756667 143.282927,104.220333 141.742683,110.787333 C139.942683,118.458 146.626829,127.822667 152.692683,135.152333 C153.753659,143.703 157.543902,150.196667 163.968293,154.475667 L146.279268,179.658333 C136.126829,172.790667 135.830488,159.345 136.218293,153.614 Z M100.386585,91.244 C99.5487805,91.244 98.8756098,91.508 98.4402439,92.0103333 C98.1219512,92.3806667 97.7817073,93.037 97.9390244,94.0856667 C98.4804878,97.7193333 101.15122,110.171333 112.836585,117.801667 C113.506098,118.241667 114.208537,118.667 114.936585,119.070333 C115.408537,119.330667 115.884146,119.462667 116.352439,119.462667 C117.552439,119.462667 118.55122,118.59 118.95,117.185667 C119.443902,115.480667 118.960976,113.134 117.084146,111.949667 C109.210976,106.981333 106.426829,99.2813333 105.468293,95.1343333 C104.926829,92.8096667 102.402439,91.244 100.386585,91.244 L100.386585,91.244 L100.386585,91.244 Z" id="Shape" fill="#FFFFFF"></path>
                    <path d="M160.763415,169.743667 L170.363415,156.070667 C173.7,160.089333 177.036585,164.075 180.376829,168.060667 C184.397561,172.864 188.418293,177.667333 192.446341,182.529333 C189.515854,188.502333 185.304878,193.995 180.223171,198.464667 L160.763415,169.743667 L160.763415,169.743667 Z" id="Shape" fill="#FFFFFF"></path>
                    <path d="M167.696341,149.144333 C160.254878,144.190667 158.769512,135.922333 158.868293,129.718333 L177.658537,109.896333 C178.639024,115.246 181.463415,119.635 186.080488,122.960667 L167.696341,149.144333 L167.696341,149.144333 Z" id="Shape" fill="#F8E81C"></path>
                    <path d="M129.581707,203.440333 C120.907317,198.457333 113.710976,190.893 109.25122,182.063667 L129.819512,160.364333 C130.44878,168.379667 133.25122,178.661 142.547561,184.971333 L129.581707,203.440333 L129.581707,203.440333 Z" id="Shape" fill="#0076FF"></path>
                    <path d="M189.830488,117.618333 C184.178049,113.343 183.479268,107.410333 183.910976,103.131333 L195.907317,90.639 C201.406098,84.8383333 206.206098,81.377 208.752439,81.377 C209.407317,81.377 209.828049,81.6043333 210.076829,82.0956667 C211.112195,84.1306667 209.154878,90.3456667 202.44878,99.6406667 L189.830488,117.618333 L189.830488,117.618333 Z" id="Shape" fill="#FF9400"></path>
                    <path d="M136.218293,153.614 L152.692683,135.152333 C153.753659,143.703 157.543902,150.196667 163.968293,154.475667 L146.279268,179.658333 C136.126829,172.790667 135.830488,159.345 136.218293,153.614 Z" id="Shape" fill="#7ED321"></path>
                </g>
            </g>
        </g>
    </g>
</svg>